<?xml version="1.0" standalone="no"?>
<!DOCTYPE svg PUBLIC "-//W3C//DTD SVG 20010904//EN"
 "http://www.w3.org/TR/2001/REC-SVG-20010904/DTD/svg10.dtd">
<svg version="1.0" xmlns="http://www.w3.org/2000/svg"
 width="220.000000pt" height="220.000000pt" viewBox="0 0 220.000000 220.000000"
 preserveAspectRatio="xMidYMid meet">
<metadata>
Created by potrace 1.11, written by Peter Selinger 2001-2013
</metadata>
<g transform="translate(0.000000,220.000000) scale(0.100000,-0.100000)"
fill="#000000" stroke="none">
<path d="M86 2177 c-22 -12 -49 -35 -60 -50 -21 -28 -21 -29 -21 -1025 l0
-997 22 -31 c12 -17 35 -40 50 -50 27 -18 65 -19 1024 -19 l996 0 36 28 c71
54 68 -9 65 1081 -3 942 -4 982 -22 1009 -10 15 -33 38 -50 50 l-31 22 -985 2
-985 3 -39 -23z"/>
</g>
</svg>
