<svg xmlns="http://www.w3.org/2000/svg" width="30" height="30"><defs><clipPath id="a"><path fill="#fff" d="M15 30c8.284 0 15-6.716 15-15 0-8.284-6.716-15-15-15C6.716 0 0 6.716 0 15c0 8.284 6.716 15 15 15z"/></clipPath></defs><path fill="none" stroke="#fff" stroke-miterlimit="20" stroke-width="2.26" d="M15 30c8.284 0 15-6.716 15-15 0-8.284-6.716-15-15-15C6.716 0 0 6.716 0 15c0 8.284 6.716 15 15 15z" clip-path="url(&quot;#a&quot;)"/><path fill="#fff" d="M22.25 18.21a4.064 4.064 0 01-4.059 4.06h-6.372a4.064 4.064 0 01-4.06-4.06V11.8a4.064 4.064 0 014.06-4.06h6.372a4.064 4.064 0 014.06 4.06zm-4.059-11.1h-6.372a4.694 4.694 0 00-4.689 4.689v6.411a4.694 4.694 0 004.689 4.69h6.372a4.694 4.694 0 004.689-4.69V11.8a4.694 4.694 0 00-4.689-4.689z"/><path fill="#fff" d="M20.446 18.195a2.264 2.264 0 01-2.263 2.26h-6.372a2.264 2.264 0 01-2.262-2.26v-6.406a2.264 2.264 0 012.262-2.26h6.372a2.264 2.264 0 012.263 2.26zM18.183 8.9h-6.372a2.895 2.895 0 00-2.891 2.891v6.412a2.895 2.895 0 002.891 2.891h6.372a2.895 2.895 0 002.892-2.891V11.79a2.895 2.895 0 00-2.892-2.89z"/><path fill="#fff" d="M14.995 18.431a3.44 3.44 0 01-3.436-3.436 3.44 3.44 0 013.436-3.436 3.44 3.44 0 013.436 3.436 3.44 3.44 0 01-3.436 3.436zm0-7.501a4.07 4.07 0 00-4.065 4.065 4.07 4.07 0 004.065 4.065 4.07 4.07 0 004.065-4.065 4.07 4.07 0 00-4.065-4.065z"/><path fill="#fff" d="M14.997 16.674a1.68 1.68 0 01-1.678-1.677 1.68 1.68 0 011.678-1.678 1.68 1.68 0 011.677 1.678 1.68 1.68 0 01-1.677 1.677zm.005-3.984a2.314 2.314 0 00-2.312 2.312 2.314 2.314 0 002.312 2.311 2.314 2.314 0 002.311-2.311 2.314 2.314 0 00-2.311-2.312zm3.83-1.196a.343.343 0 110-.686.343.343 0 010 .686zm.005-1.314a.978.978 0 000 1.953.978.978 0 000-1.953zm-4.336 11.2h-2.956a.315.315 0 100 .63H14.5a.315.315 0 100-.63zm1.192 0h-.188a.315.315 0 000 .63h.188a.315.315 0 100-.63z"/></svg>