<svg xmlns="http://www.w3.org/2000/svg" width="18" height="18"><path fill="#fff" d="M15.188 0H2.812A2.816 2.816 0 000 2.813v1.406a.703.703 0 101.406 0V2.812c0-.775.631-1.406 1.407-1.406h12.374c.776 0 1.407.631 1.407 1.407v12.374c0 .776-.631 1.407-1.407 1.407H2.813a1.408 1.408 0 01-1.407-1.407v-1.406a.703.703 0 10-1.406 0v1.406A2.816 2.816 0 002.813 18h12.374A2.816 2.816 0 0018 15.187V2.813A2.816 2.816 0 0015.187 0z"/><path fill="#fff" d="M12.125 7.436l-2.66-2.723a.7.7 0 00-1.007 0 .741.741 0 000 1.031l2.661 2.722a.742.742 0 010 1.031l-.003.003-2.66 2.76a.741.741 0 00.006 1.03.7.7 0 001.006-.007l2.66-2.757c.83-.853.83-2.238-.003-3.09z"/><path fill="#fff" d="M8.289 8.25H.71C.32 8.25 0 8.586 0 9s.319.75.711.75H8.29c.39 0 .71-.336.71-.75s-.319-.75-.711-.75z"/></svg>