<svg xmlns="http://www.w3.org/2000/svg" width="30" height="30" viewBox="0 0 30 30"><defs><clipPath id="ji61a"><path fill="#fff" d="M15 30c8.284 0 15-6.716 15-15 0-8.284-6.716-15-15-15C6.716 0 0 6.716 0 15c0 8.284 6.716 15 15 15z"/></clipPath></defs><g><g><g><g><path fill="#fff" d="M16.045 12.827h2.213l-.286 2.374h-1.927a.321.321 0 0 0-.328.314v6.726h-2.793v-6.758a.321.321 0 0 0-.328-.314h-1.66v-2.342h1.747c.18 0 .328-.14.328-.314V10.67a.302.302 0 0 0-.005-.054c-.035-.19-.158-1.18.802-2.026.898-.79 2.04-.852 2.37-.852a1.754 1.754 0 0 1 .094.002h1.995v2.167H16.84c-.703 0-1.123.385-1.123 1.03v1.576c0 .173.147.314.328.314zm.795-2.292h1.5c.322 0 .583-.25.583-.558V7.67a.572.572 0 0 0-.583-.558h-2.06l-.103-.002c-.388 0-1.74.073-2.813 1.018-1.17 1.03-1.059 2.264-1.01 2.568v1.503h-1.49a.572.572 0 0 0-.584.558v2.482c0 .307.262.558.583.558h1.405v6.514c0 .307.262.558.583.558h2.939c.322 0 .583-.25.583-.558v-6.482h1.665a.574.574 0 0 0 .579-.494l.302-2.514a.543.543 0 0 0-.144-.435.596.596 0 0 0-.435-.187h-1.967v-1.262c0-.26.074-.402.467-.402z"/></g><g><path fill="#fff" d="M13.588 17.68a.321.321 0 0 0-.328.314v.157c0 .173.147.314.328.314.181 0 .328-.14.328-.314v-.157a.321.321 0 0 0-.328-.314z"/></g><g><path fill="#fff" d="M13.588 18.85a.321.321 0 0 0-.328.314v2.386c0 .173.147.314.328.314.181 0 .328-.14.328-.314v-2.386a.321.321 0 0 0-.328-.314z"/></g><g><path fill="none" stroke="#fff" stroke-miterlimit="20" stroke-width="2.26" d="M15 30c8.284 0 15-6.716 15-15 0-8.284-6.716-15-15-15C6.716 0 0 6.716 0 15c0 8.284 6.716 15 15 15z" clip-path="url(&quot;#ji61a&quot;)"/></g></g></g></g></svg>