<svg xmlns="http://www.w3.org/2000/svg" width="24" height="22" viewBox="0 0 24 22"><g><g><g><path fill="#eb5e55" d="M21.166 1.523A6.961 6.961 0 0 0 17.772.078a7.057 7.057 0 0 0-5.771 1.824 7.027 7.027 0 0 0-9.195-.369A7.461 7.461 0 0 0 0 7.406c0 1.972.753 3.833 2.113 5.232l8.617 8.86c.329.338.758.502 1.186.502.429 0 .857-.17 1.186-.502l1.336-1.374a.947.947 0 0 0 0-1.306.885.885 0 0 0-1.271 0l-1.25 1.286-8.533-8.778a5.626 5.626 0 0 1-1.59-3.93c0-1.728.768-3.337 2.113-4.413a5.166 5.166 0 0 1 2.537-1.091 5.308 5.308 0 0 1 4.57 1.583l.987 1.015.977-1.005a5.3 5.3 0 0 1 4.56-1.578 5.22 5.22 0 0 1 2.531 1.076 5.605 5.605 0 0 1 2.134 4.592c-.04 1.42-.643 2.798-1.69 3.879l-4.545 4.668a.947.947 0 0 0 0 1.307.885.885 0 0 0 1.27 0l4.546-4.673c1.375-1.415 2.163-3.234 2.213-5.13.07-2.403-.962-4.627-2.831-6.103z"/></g></g></g></svg>