<svg xmlns="http://www.w3.org/2000/svg" width="32" height="21" viewBox="0 0 32 21"><g><g><g><path fill="#41479b" d="M29.603 0H2.397A2.398 2.398 0 0 0 0 2.4v16.2C0 19.925 1.073 21 2.397 21h27.206A2.399 2.399 0 0 0 32 18.6V2.4C32 1.076 30.927 0 29.603 0z"/></g><g><path fill="#f5f5f5" d="M31.967 2.004A2.398 2.398 0 0 0 29.603 0h-.623L18.759 6.708V0H13.24v6.708L3.021 0h-.624A2.398 2.398 0 0 0 .033 2.004L8.77 7.737H0v5.526h8.77L.032 18.996A2.398 2.398 0 0 0 2.397 21h.623l10.221-6.708V21h5.518v-6.708L28.979 21h.624a2.398 2.398 0 0 0 2.364-2.004l-8.736-5.733H32V7.737h-8.77z"/></g><g><g><path fill="#ff4b55" d="M17.655.02h-3.31v8.828H0v3.31h14.345v8.828h3.31v-8.828H32v-3.31H17.655z"/></g><g><path fill="#ff4b55" d="M1.553 20.83l11.662-7.57h-2.027L.58 20.146c.26.303.593.54.973.684z"/></g><g><path fill="#ff4b55" d="M21.647 13.26H19.62l11.295 7.332c.316-.208.58-.488.768-.818z"/></g><g><path fill="#ff4b55" d="M.25 1.342l9.858 6.4h2.027L.965.49c-.3.223-.546.515-.715.852z"/></g><g><path fill="#ff4b55" d="M20.787 7.737L31.414.84a2.4 2.4 0 0 0-.981-.679L18.76 7.737z"/></g></g></g></g></svg>