<svg xmlns="http://www.w3.org/2000/svg" width="21" height="21" viewBox="0 0 21 21"><g><g><g><g><g><path fill="#fff" d="M10.468 20.101c-5.312 0-9.634-4.321-9.634-9.633 0-5.312 4.322-9.634 9.634-9.634S20.1 5.156 20.1 10.468 15.78 20.1 10.468 20.1zm7.401-17.035A10.399 10.399 0 0 0 10.468 0a10.399 10.399 0 0 0-7.402 3.066A10.399 10.399 0 0 0 0 10.468c0 2.796 1.089 5.424 3.066 7.401a10.399 10.399 0 0 0 7.402 3.066c2.796 0 5.424-1.088 7.401-3.066a10.399 10.399 0 0 0 3.066-7.401c0-2.796-1.088-5.425-3.066-7.402z"/></g><g><path fill="#fff" d="M18.9 12.193a.417.417 0 0 0-.507.301 8.11 8.11 0 0 1-1.151 2.557.417.417 0 0 0 .69.468 8.941 8.941 0 0 0 1.269-2.819.417.417 0 0 0-.301-.507z"/></g><g><path fill="#fff" d="M19.055 10.05a.417.417 0 0 0-.417.417c0 .12-.002.24-.008.357a.417.417 0 1 0 .834.036c.005-.13.008-.262.008-.393a.417.417 0 0 0-.417-.417z"/></g><g><path fill="#fff" d="M11.105 15.787a.629.629 0 0 1-.63.625.629.629 0 0 1-.63-.625V8.529c0-.345.282-.626.63-.626.347 0 .63.28.63.626zM10.47 7.07c-.805 0-1.46.655-1.46 1.46v7.256c0 .805.655 1.46 1.46 1.46.804 0 1.46-.655 1.46-1.46V8.53c0-.805-.656-1.46-1.46-1.46z"/></g><g><path fill="#fff" d="M10.92 5.6a.637.637 0 0 1-.445.185.636.636 0 0 1-.446-.184.635.635 0 0 1 0-.892.637.637 0 0 1 .446-.185.635.635 0 0 1 .446 1.076zm.581-1.483a1.471 1.471 0 0 0-1.031-.427c-.384 0-.76.156-1.033.427A1.47 1.47 0 0 0 9.01 5.15c0 .383.156.76.428 1.032s.648.427 1.032.427c.383 0 .76-.155 1.032-.427s.427-.649.427-1.032c0-.385-.155-.761-.428-1.033z"/></g></g></g></g></g></svg>