<svg xmlns="http://www.w3.org/2000/svg" width="29" height="29" viewBox="0 0 29 29"><g><g><g><path fill="#fff" d="M14.5 29C22.508 29 29 22.508 29 14.5S22.508 0 14.5 0 0 6.492 0 14.5 6.492 29 14.5 29z"/></g><g><g opacity=".5"><g opacity=".5"><path d="M14.494 23.883c-5.325 0-9.657-4.275-9.657-9.529s4.332-9.529 9.657-9.529 9.658 4.275 9.658 9.53c0 5.253-4.333 9.528-9.658 9.528zm7.43-16.849A10.503 10.503 0 0 0 14.5 4a10.502 10.502 0 0 0-7.425 3.034A10.223 10.223 0 0 0 4 14.36c0 2.767 1.092 5.369 3.075 7.326A10.503 10.503 0 0 0 14.5 24.72c2.805 0 5.441-1.078 7.425-3.034A10.223 10.223 0 0 0 25 14.36c0-2.767-1.092-5.369-3.075-7.326z"/></g><g opacity=".5"><path d="M22.955 16.065a.419.419 0 0 0-.509.298 7.976 7.976 0 0 1-1.154 2.53.41.41 0 0 0 .112.574.42.42 0 0 0 .58-.11 8.793 8.793 0 0 0 1.273-2.79.412.412 0 0 0-.302-.502z"/></g><g opacity=".5"><path d="M23.116 13.946a.416.416 0 0 0-.418.412c0 .118-.002.237-.008.354a.415.415 0 0 0 .419.43.416.416 0 0 0 .417-.394c.006-.129.009-.26.009-.39a.416.416 0 0 0-.419-.412z"/></g><g opacity=".5"><path d="M15.122 19.625a.621.621 0 0 1-1.244 0v-7.182a.621.621 0 0 1 1.244 0zM14.506 11c-.808 0-1.464.648-1.464 1.444v7.182c0 .797.656 1.445 1.464 1.445.807 0 1.464-.648 1.464-1.445v-7.182c0-.796-.657-1.444-1.464-1.444z"/></g><g opacity=".5"><path d="M14.94 9.521a.632.632 0 0 1-.88.001.615.615 0 0 1-.182-.434.613.613 0 0 1 .622-.613c.164 0 .324.065.44.18a.614.614 0 0 1 .182.433c0 .161-.067.32-.182.433zm.6-1.45a1.486 1.486 0 0 0-1.034-.422c-.385 0-.762.154-1.036.423a1.445 1.445 0 0 0-.428 1.022c0 .38.156.752.429 1.022.273.268.65.422 1.035.422.385 0 .762-.154 1.035-.423.273-.27.429-.642.429-1.021 0-.38-.156-.753-.43-1.022z"/></g></g></g></g></g></svg>