<svg xmlns="http://www.w3.org/2000/svg" width="30" height="30" viewBox="0 0 30 30"><defs><clipPath id="3a0ma"><path fill="#50e3b3" d="M15 30c8.284 0 15-6.716 15-15 0-8.284-6.716-15-15-15C6.716 0 0 6.716 0 15c0 8.284 6.716 15 15 15z"/></clipPath></defs><g><g><g><path fill="none" stroke="#50e3b3" stroke-miterlimit="20" stroke-width="2.26" d="M15 30c8.284 0 15-6.716 15-15 0-8.284-6.716-15-15-15C6.716 0 0 6.716 0 15c0 8.284 6.716 15 15 15z" clip-path="url(&quot;#3a0ma&quot;)"/></g><g><g><g><path fill="#50e3b3" d="M22.25 18.21a4.064 4.064 0 0 1-4.059 4.06h-6.372a4.064 4.064 0 0 1-4.06-4.06V11.8a4.064 4.064 0 0 1 4.06-4.06h6.372a4.064 4.064 0 0 1 4.06 4.06zm-4.059-11.1h-6.372a4.694 4.694 0 0 0-4.689 4.689v6.411a4.694 4.694 0 0 0 4.689 4.69h6.372a4.694 4.694 0 0 0 4.689-4.69V11.8a4.694 4.694 0 0 0-4.689-4.689z"/></g><g><path fill="#50e3b3" d="M20.446 18.195a2.264 2.264 0 0 1-2.263 2.26h-6.372a2.264 2.264 0 0 1-2.262-2.26v-6.406a2.264 2.264 0 0 1 2.262-2.26h6.372a2.264 2.264 0 0 1 2.263 2.26zM18.183 8.9h-6.372a2.895 2.895 0 0 0-2.891 2.891v6.412a2.895 2.895 0 0 0 2.891 2.891h6.372a2.895 2.895 0 0 0 2.892-2.891V11.79A2.895 2.895 0 0 0 18.183 8.9z"/></g></g><g><g><path fill="#50e3b3" d="M14.995 18.431a3.44 3.44 0 0 1-3.436-3.436 3.44 3.44 0 0 1 3.436-3.436 3.44 3.44 0 0 1 3.436 3.436 3.44 3.44 0 0 1-3.436 3.436zm0-7.501a4.07 4.07 0 0 0-4.065 4.065 4.07 4.07 0 0 0 4.065 4.065 4.07 4.07 0 0 0 4.065-4.065 4.07 4.07 0 0 0-4.065-4.065z"/></g><g><path fill="#50e3b3" d="M14.997 16.674a1.68 1.68 0 0 1-1.678-1.677 1.68 1.68 0 0 1 1.678-1.678 1.68 1.68 0 0 1 1.677 1.678 1.68 1.68 0 0 1-1.677 1.677zm.005-3.984a2.314 2.314 0 0 0-2.312 2.312 2.314 2.314 0 0 0 2.312 2.311 2.314 2.314 0 0 0 2.311-2.311 2.314 2.314 0 0 0-2.311-2.312z"/></g></g><g><path fill="#50e3b3" d="M18.832 11.494a.343.343 0 1 1 0-.686.343.343 0 0 1 0 .686zm.005-1.314a.978.978 0 0 0 0 1.953.978.978 0 0 0 0-1.953z"/></g><g><path fill="#50e3b3" d="M14.501 21.38h-2.956a.315.315 0 1 0 0 .63H14.5a.315.315 0 1 0 0-.63z"/></g><g><path fill="#50e3b3" d="M15.693 21.38h-.188a.315.315 0 0 0 0 .63h.188a.315.315 0 1 0 0-.63z"/></g></g></g></g></svg>