<svg xmlns="http://www.w3.org/2000/svg" width="30" height="30" viewBox="0 0 30 30"><defs><clipPath id="evwva"><path fill="#fff" d="M15 30c8.284 0 15-6.716 15-15 0-8.284-6.716-15-15-15C6.716 0 0 6.716 0 15c0 8.284 6.716 15 15 15z"/></clipPath></defs><g><g><g><path fill="none" stroke="#fff" stroke-miterlimit="20" stroke-width="2.26" d="M15 30c8.284 0 15-6.716 15-15 0-8.284-6.716-15-15-15C6.716 0 0 6.716 0 15c0 8.284 6.716 15 15 15z" clip-path="url(&quot;#evwva&quot;)"/></g><g><g><path fill="#fff" d="M10.883 22.246H7.979V12.61h2.904zm.07-10.266H7.909a.56.56 0 0 0-.559.559v9.777c0 .309.25.56.559.56h3.044a.56.56 0 0 0 .559-.56V12.54a.56.56 0 0 0-.56-.559z"/></g><g><path fill="#fff" d="M9.428 11.133a1.693 1.693 0 0 1 0-3.384c.45 0 .873.176 1.192.496a1.692 1.692 0 0 1-1.192 2.888zM11.074 7.8a2.306 2.306 0 0 0-1.641-.68A2.324 2.324 0 0 0 7.11 9.44a2.325 2.325 0 0 0 2.323 2.322 2.324 2.324 0 0 0 2.321-2.321c0-.62-.242-1.202-.68-1.64z"/></g><g><path fill="#fff" d="M19.37 22.25v-4.684c0-.637-.018-1.301-.229-1.797-.245-.575-.723-.867-1.421-.867-1.67 0-1.894 1.304-1.894 2.58v4.767h-2.897v-9.637h2.775v.565a.315.315 0 0 0 .546.213c.35-.381 1.132-1.02 2.442-1.02 3.143 0 3.576 2.204 3.576 4.586v5.294zm2.824-8.813c-.664-1.126-1.842-1.697-3.502-1.697-1.069 0-1.846.365-2.363.741a.56.56 0 0 0-.555-.498h-2.915a.56.56 0 0 0-.559.559v9.777c0 .309.25.56.559.56h3.037a.56.56 0 0 0 .559-.56v-4.837c0-1.64.444-1.95 1.265-1.95.801 0 1.02.437 1.02 2.034v4.754c0 .308.252.559.56.559h3.038a.56.56 0 0 0 .559-.56v-5.363c0-1.083-.08-2.462-.703-3.52z"/></g><g><path fill="#fff" d="M8.615 18.33a.315.315 0 0 0-.315.315v2.925a.315.315 0 1 0 .629 0v-2.925a.315.315 0 0 0-.314-.315z"/></g><g><path fill="#fff" d="M8.615 17.01a.315.315 0 0 0-.315.315v.283a.315.315 0 1 0 .629 0v-.283a.315.315 0 0 0-.314-.315z"/></g></g></g></g></svg>