<svg xmlns="http://www.w3.org/2000/svg" width="190" height="47" viewBox="0 0 190 47"><g><g><g><path fill="#fff" d="M48.37 22.861l-.043-7.191h2.026v10.371h-1.87l-4.83-7.176.043 7.176H41.67V15.67h1.884z"/></g><g><path fill="#fff" d="M51.67 21.046c0-3.321 2.578-5.466 5.496-5.466 3.173 0 5.51 2.44 5.51 5.382 0 2.944-2.323 5.382-5.524 5.382-3.215 0-5.482-2.51-5.482-5.284zm2.109-.084c0 1.892 1.375 3.546 3.416 3.546 2.125 0 3.373-1.821 3.373-3.531 0-1.738-1.248-3.562-3.387-3.562-2.098 0-3.402 1.71-3.402 3.534z"/></g><g><path fill="#fff" d="M62.5 15.58h2.182l2.62 7.877 2.649-7.877h2.182l-3.754 10.371H66.24z"/></g><g><path fill="#fff" d="M71.67 21.046c0-3.321 2.578-5.466 5.496-5.466 3.173 0 5.51 2.44 5.51 5.382 0 2.944-2.323 5.382-5.524 5.382-3.215 0-5.482-2.51-5.482-5.284zm2.109-.084c0 1.892 1.375 3.546 3.416 3.546 2.125 0 3.373-1.821 3.373-3.531 0-1.738-1.248-3.562-3.387-3.562-2.098 0-3.402 1.71-3.402 3.534z"/></g><g><path fill="#fff" d="M91.63 18.96a3.416 3.416 0 0 0-.78-.856 3.186 3.186 0 0 0-2.01-.688c-1.686 0-3.4 1.263-3.4 3.519 0 2.34 1.73 3.573 3.4 3.573.836 0 1.544-.238 2.083-.63.552-.392.92-.952 1.075-1.57H88.09v-1.683h6.346c.03.688-.07 1.74-.467 2.609-.977 2.157-3.229 3.11-5.114 3.11-3.13 0-5.524-2.396-5.524-5.41 0-3.097 2.493-5.354 5.553-5.354 2.365 0 4.448 1.487 5.127 3.379z"/></g><g><path fill="#fff" d="M95.83 15.58h3.172c1.63 0 2.566.253 3.131.659.865.617 1.332 1.668 1.332 2.817 0 .756-.213 1.43-.567 1.934-.454.66-1.047.953-1.728 1.122l2.337 3.84h-2.21l-2.819-4.823h.412c.693 0 1.444-.04 1.883-.377.412-.336.665-.883.665-1.513 0-.631-.31-1.206-.777-1.501-.383-.238-.893-.322-1.488-.322h-1.232v8.535H95.83z"/></g><g><path fill="#fff" d="M105.625 25.951h-2.295l4.25-10.371h1.856l4.15 10.371h-2.31l-.764-2.032h-4.136zm2.785-7.904l-1.482 4.195h3.007z"/></g><g><path fill="#fff" d="M115 15.58h3.33c1.302 0 3.2.126 4.447 1.794.765.953 1.077 2.104 1.077 3.38 0 2.927-1.559 5.198-5.37 5.198H115zm2.11 8.536h1.488c2.266 0 3.145-1.472 3.145-3.335 0-.814-.213-1.682-.708-2.327-.44-.561-1.147-1.038-2.422-1.038h-1.502z"/></g><g><path fill="#fff" d="M131.7 22.771l-.043-7.191h2.026v10.371h-1.87l-4.83-7.176.044 7.176H125V15.58h1.883z"/></g><g><path fill="#fff" d="M140.843 22.125c0 1.108-.099 1.767-.327 2.284-.211.436-.622.884-1.048 1.15a3.641 3.641 0 0 1-1.997.589c-.453 0-2.79-.155-3.23-2.51-.042-.209-.056-.447-.071-.686h2.252c0 .099.015.183.03.28.155.674.58 1.08 1.118 1.08.582-.015.894-.322 1.02-.674.127-.322.142-.686.142-1.008v-7.05h2.111z"/></g><g><path fill="#fff" d="M143.125 25.951h-2.295l4.25-10.371h1.856l4.15 10.371h-2.31l-.764-2.032h-4.136zm2.79-7.904l-1.488 4.195h3.018z"/></g><g><path fill="#50e3b3" d="M152.5 25.895h1.94V23.82h-1.94z"/></g><g><path fill="#50e3b3" d="M165.625 22.673c-.638 2.145-2.678 3.672-5.128 3.672-3.202 0-5.497-2.51-5.497-5.395 0-2.762 2.168-5.37 5.483-5.37 3.016.015 4.73 2.215 5.142 3.729H163.4c-.326-.715-1.26-1.878-2.93-1.893-2.04 0-3.36 1.696-3.36 3.534 0 1.89 1.375 3.56 3.373 3.56 1.869 0 2.72-1.459 2.917-1.837z"/></g><g><path fill="#50e3b3" d="M166.67 21.046c0-3.321 2.578-5.466 5.496-5.466 3.174 0 5.512 2.44 5.512 5.382 0 2.944-2.325 5.382-5.526 5.382-3.215 0-5.482-2.51-5.482-5.284zm2.109-.084c0 1.892 1.374 3.546 3.415 3.546 2.126 0 3.375-1.821 3.375-3.531 0-1.738-1.249-3.562-3.388-3.562-2.098 0-3.402 1.71-3.402 3.534z"/></g><g><path fill="#50e3b3" d="M178.33 25.951V15.58h2.848l2.69 7.442 2.65-7.442h2.862v10.371h-1.955l.057-8.311-2.933 8.311h-1.388l-2.946-8.311.057 8.311z"/></g><g><path fill="#fff" d="M47.597 37.417l-.011-6.997h.915v8.378h-.915l-5.024-7.053.023 7.053h-.915V30.42h.962z"/></g><g><path fill="#fff" d="M50 30.42h4.69v.826h-3.752v2.91h3.73v.826h-3.73v2.99h3.753v.826H50z"/></g><g><path fill="#fff" d="M55 30.42h.973l1.922 7.099 1.854-7.099h.708l1.89 7.099 1.899-7.099h.96l-2.369 8.378h-.925l-1.809-6.805-1.807 6.805h-.95z"/></g><g><path fill="#fff" d="M69.17 30.42h2.53c1.2 0 2.482.26 3.328 1.256.687.747 1.019 1.733 1.019 2.921 0 2.526-1.454 4.2-4.303 4.2H69.17zm.937 7.541h1.683c2.175 0 3.309-1.323 3.309-3.335 0-.972-.264-1.831-.825-2.441-.538-.566-1.328-.939-2.484-.939h-1.683z"/></g><g><path fill="#fff" d="M77.5 30.42h4.692v.826h-3.754v2.91h3.731v.826h-3.73v2.99h3.753v.826H77.5z"/></g><g><path fill="#fff" d="M82.5 30.42h.995l2.804 7.166 2.815-7.166h.995l-3.363 8.378h-.905z"/></g><g><path fill="#fff" d="M90.83 30.42h4.692v.826h-3.754v2.91H95.5v.826h-3.73v2.99h3.753v.826H90.83z"/></g><g><path fill="#fff" d="M96.67 30.42h.95v7.551h3.227v.827H96.67z"/></g><g><path fill="#fff" d="M100 34.78c0-2.582 2.027-4.36 4.418-4.36 2.484 0 4.416 1.88 4.416 4.337s-1.922 4.336-4.417 4.336c-2.505 0-4.417-1.913-4.417-4.302zm.95-.023c0 1.97 1.502 3.51 3.484 3.51 2.006 0 3.472-1.597 3.472-3.51 0-1.913-1.466-3.51-3.484-3.51-1.993 0-3.471 1.563-3.471 3.499z"/></g><g><path fill="#fff" d="M112.232 30.42c1.189 0 1.75.135 2.277.531.56.432.903 1.213.903 1.994 0 .792-.354 1.596-.869 1.992-.56.43-1.133.566-2.23.566h-1.363v3.295H110V30.42zm-1.282 4.256h1.35c.71 0 1.145-.079 1.568-.35.366-.238.63-.77.63-1.358 0-.601-.264-1.132-.641-1.37-.424-.273-.858-.352-1.58-.352h-1.327z"/></g><g><path fill="#fff" d="M115.83 38.798V30.42h1.327l3.136 7.031 3.124-7.031h1.327v8.378h-.893l.022-7.45-3.283 7.45h-.607l-3.295-7.45.023 7.45z"/></g><g><path fill="#fff" d="M126.67 30.42h4.69v.826h-3.75v2.91h3.73v.826h-3.73v2.99h3.75v.826h-4.69z"/></g><g><path fill="#fff" d="M138.428 37.416l-.012-6.996h.915v8.378h-.915l-5.023-7.053.021 7.053h-.914V30.42h.96z"/></g><g><path fill="#fff" d="M142.083 31.246H140v-.826h5.125v.826h-2.092v7.552h-.95z"/></g><g><path fill="#fff" d="M145.95 36.614c.138 1.391 1.168 1.686 1.692 1.686.882 0 1.694-.667 1.694-1.596 0-1.177-1.018-1.438-2.002-1.756-.686-.202-2.163-.632-2.163-2.217-.023-1.483 1.224-2.311 2.518-2.311 1.052 0 2.266.578 2.403 2.163h-.938c-.104-.543-.379-1.369-1.5-1.369-.847 0-1.546.566-1.546 1.436-.009 1.02.826 1.27 2.107 1.7.8.306 2.06.747 2.06 2.286 0 1.37-1.042 2.457-2.622 2.457-1.417 0-2.597-.883-2.653-2.479z"/></g><g><path fill="#fff" d="M154.17 30.42h4.302v.826h-3.365v2.944h3.342v.838h-3.342v3.77h-.937z"/></g><g><path fill="#fff" d="M159.17 38.798h.94V30.42h-.94z"/></g><g><path fill="#fff" d="M167.596 37.416l-.01-6.996h.915v8.378h-.915l-5.024-7.053.022 7.053h-.914V30.42h.96z"/></g><g><path fill="#fff" d="M170 30.42h2.527c1.202 0 2.485.26 3.33 1.256.688.747 1.02 1.733 1.02 2.921 0 2.526-1.454 4.2-4.304 4.2H170zm.94 7.541h1.68c2.173 0 3.306-1.323 3.306-3.335 0-.972-.262-1.831-.823-2.441-.537-.566-1.327-.939-2.482-.939h-1.682z"/></g><g><path fill="#fff" d="M178.33 30.42h4.69v.826h-3.752v2.91h3.73v.826h-3.73v2.99h3.753v.826h-4.691z"/></g><g><path fill="#fff" d="M184.17 30.42h2.208c1.329 0 1.945.157 2.38.43.687.408 1.156 1.302 1.156 2.253.011.565-.148 1.166-.503 1.641-.503.68-1.109.84-1.889.918l2.107 3.136h-1.03l-2.392-3.657h.274c.596 0 1.42-.012 1.876-.43.448-.43.642-.94.642-1.54 0-.624-.309-1.28-.835-1.619-.423-.272-.95-.306-1.717-.306h-1.326v7.552h-.951z"/></g><g><path fill="#50e3b3" d="M28.626 31.862c-3.694 5.503-8.491 9.611-10.435 11.159-3.358-2.668-15.216-12.943-15.216-24.898 0-8.372 6.4-14.451 15.217-14.451 8.816 0 15.213 6.079 15.213 14.451 0 2.968-.734 5.833-1.887 8.505l2.266 2.242c1.563-3.295 2.596-6.92 2.596-10.747C36.38 8.206 28.562.73 18.192.73S0 8.206 0 18.123C0 33.464 16.612 45.57 17.32 46.076a1.49 1.49 0 0 0 1.744-.002c.434-.31 6.833-4.978 11.728-12.071z"/></g><g><path fill="#fff" d="M32.294 28.959a1.457 1.457 0 0 1 0 2.081 1.49 1.49 0 0 1-1.052.43c-.398 0-.771-.153-1.052-.43l-7.782-7.711a8.43 8.43 0 0 1-4.81 1.502 8.423 8.423 0 0 1-5.96-2.443A8.242 8.242 0 0 1 9.17 16.49c0-4.597 3.78-8.34 8.428-8.34 2.256 0 4.375.868 5.966 2.442a8.244 8.244 0 0 1 2.464 5.897 8.233 8.233 0 0 1-1.515 4.76l7.781 7.71m-14.701-7.062c3.006 0 5.451-2.425 5.451-5.403.001-1.443-.565-2.8-1.593-3.819a5.426 5.426 0 0 0-3.85-1.581c-3.008 0-5.455 2.425-5.455 5.403 0 1.443.565 2.799 1.594 3.817a5.43 5.43 0 0 0 3.853 1.583"/></g></g></g></svg>