<svg xmlns="http://www.w3.org/2000/svg" width="38" height="38" viewBox="0 0 38 38"><g><g><path fill="#6d7893" d="M28 19.5c0 .196-.096.38-.255.49l-12.833 8.907a.577.577 0 0 1-.601.034.595.595 0 0 1-.311-.525V10.593c0-.22.12-.422.31-.524a.576.576 0 0 1 .602.034l12.833 8.906c.16.11.255.294.255.49z"/></g><g><path fill="#6d7893" d="M18.995 36.723c-9.775 0-17.728-7.953-17.728-17.728 0-9.775 7.953-17.728 17.728-17.728 9.775 0 17.728 7.953 17.728 17.728 0 9.775-7.953 17.728-17.728 17.728zM19 0C8.523 0 0 8.523 0 19s8.523 19 19 19 19-8.523 19-19S29.477 0 19 0z"/></g></g></svg>