<svg xmlns="http://www.w3.org/2000/svg" width="30" height="30" viewBox="0 0 30 30"><defs><clipPath id="alt2a"><path fill="#fff" d="M15 30c8.284 0 15-6.716 15-15 0-8.284-6.716-15-15-15C6.716 0 0 6.716 0 15c0 8.284 6.716 15 15 15z"/></clipPath></defs><g><g><g><path fill="none" stroke="#ffffff" stroke-miterlimit="20" stroke-width="2.26" d="M15 30c8.284 0 15-6.716 15-15 0-8.284-6.716-15-15-15C6.716 0 0 6.716 0 15c0 8.284 6.716 15 15 15z" clip-path="url(&quot;#alt2a&quot;)"/></g><g><g><path fill="#ffffff" d="M20.777 12.175a.298.298 0 0 0-.096.24c.02.286.38 7.037-6.775 8.735-.032.007-2.877.6-5.342-.622 1.042-.03 2.536-.302 3.576-1.472a.298.298 0 0 0-.222-.497h-.003c-.015.01-1.58-.001-2.296-1.491.289.016.645-.002.928-.132a.299.299 0 0 0-.064-.563c-.08-.017-1.821-.407-2.065-2.309.264.116.602.21.937.16a.298.298 0 0 0 .15-.52c-.074-.066-1.71-1.521-.934-3.398.842.884 3.335 3.182 6.356 3.009a.299.299 0 0 0 .272-.37 2.875 2.875 0 0 1-.086-.699c0-1.544 1.235-2.8 2.752-2.8.742 0 1.438.297 1.96.836.055.057.13.09.209.09.315.005.834-.032 1.42-.268a4.8 4.8 0 0 1-.782.751.298.298 0 0 0 .207.532c.07-.005.424-.037.824-.123-.219.235-.518.535-.926.911zm1.947-1.8a.298.298 0 0 0-.347.01c-.133.1-.35.181-.585.243.61-.684.623-1.14.616-1.246a.298.298 0 0 0-.472-.222c-.686.5-1.37.604-1.776.615a3.295 3.295 0 0 0-2.296-.925c-1.846 0-3.347 1.523-3.347 3.396 0 .16.01.322.033.48-3.199-.035-5.797-3.104-5.823-3.136a.298.298 0 0 0-.487.043c-.92 1.598-.305 3.002.258 3.806a1.97 1.97 0 0 1-.228-.14.297.297 0 0 0-.476.234c-.025 1.523.707 2.396 1.396 2.878a.298.298 0 0 0-.315.384c.476 1.56 1.644 2.089 2.388 2.269-1.529 1.19-3.778.807-3.803.803a.298.298 0 0 0-.233.53c1.613 1.233 3.543 1.506 4.937 1.506a9.507 9.507 0 0 0 1.874-.172c7.06-1.675 7.258-8.149 7.242-9.21 1.325-1.233 1.532-1.703 1.564-1.82a.297.297 0 0 0-.12-.326z"/></g></g></g></g></svg>